<svg xmlns="http://www.w3.org/2000/svg" width="15.969" height="15.969" viewBox="0 0 15.969 15.969" fill="#1a8cff">
  <path d="M7.992,15.994a7.989,7.989,0,1,1,7.989-7.989A8,8,0,0,1,7.992,15.994Zm6.738-6.9a10.015,10.015,0,0,0-4.251-.292A29.462,29.462,0,0,1,11.8,13.673,6.836,6.836,0,0,0,14.729,9.1Zm-4.072,5.2A28.37,28.37,0,0,0,9.2,9.122l-0.045.015A9.355,9.355,0,0,0,3.8,13.4,6.815,6.815,0,0,0,10.657,14.3ZM2.922,12.578a10.827,10.827,0,0,1,5.547-4.5q0.133-.043.269-0.081C8.566,7.606,8.38,7.218,8.184,6.836a25.172,25.172,0,0,1-7.013.971c0,0.069,0,.139,0,0.209A6.8,6.8,0,0,0,2.922,12.578Zm-1.61-5.96A25.453,25.453,0,0,0,7.62,5.787,43.536,43.536,0,0,0,5.09,1.84,6.849,6.849,0,0,0,1.312,6.618ZM6.392,1.381A36.422,36.422,0,0,1,8.939,5.376a7.705,7.705,0,0,0,3.577-2.465A6.816,6.816,0,0,0,6.392,1.381ZM13.274,3.7a9.09,9.09,0,0,1-3.81,2.691c0.159,0.325.311,0.656,0.453,0.988q0.075,0.177.147,0.352a15.948,15.948,0,0,1,4.752.22A6.792,6.792,0,0,0,13.274,3.7Z" transform="translate(0 -0.031)"/>
</svg>
