<svg xmlns="http://www.w3.org/2000/svg" width="21" height="16" viewBox="0 0 21 16">
  <defs>
    <style>
      .cls-1 {
        fill: #1a8cff;
        fill-rule: evenodd;
      }
    </style>
  </defs>
  <path id="mail" class="cls-1" d="M20.9,0.139A0.344,0.344,0,0,0,20.586.014a0.329,0.329,0,0,0-.078.014L0.261,5.633a0.357,0.357,0,0,0-.017.681L7.652,8.784l-0.663,5.4a0.357,0.357,0,0,0,.173.352,0.344,0.344,0,0,0,.386-0.026l2.711-2.113,2.377,3.456a0.347,0.347,0,0,0,.286.152h0.024a0.348,0.348,0,0,0,.287-0.193l7.7-15.281A0.358,0.358,0,0,0,20.9.139ZM18.473,1.328L7.986,8.147,1.569,6.007ZM7.786,13.425L8.268,9.5,9.859,11.81Zm5.091,1.533L8.529,8.637,19.738,1.349Z"/>
</svg>
