<svg xmlns="http://www.w3.org/2000/svg" width="22" height="16" viewBox="0 0 24.01 17.99"><path d="M22.64,2.77a8.42,8.42,0,0,1-2.42.66,4.24,4.24,0,0,0,1.85-2.33,8.5,8.5,0,0,1-2.68,1A4.24,4.24,0,0,0,15.24.93a4.16,4.16,0,0,0-3,3,4.4,4.4,0,0,0,0,2A12,12,0,0,1,3.51,1.57,4.22,4.22,0,0,0,4.82,7.2a4.22,4.22,0,0,1-1.91-.53v.05a4.22,4.22,0,0,0,3.38,4.14A4.27,4.27,0,0,1,5.18,11a4,4,0,0,1-.79-.08,4.22,4.22,0,0,0,3.94,2.93,8.46,8.46,0,0,1-5.24,1.8,9,9,0,0,1-1-.06,11.92,11.92,0,0,0,6.47,1.9,11.92,11.92,0,0,0,12-12V5A8.42,8.42,0,0,0,22.64,2.77Z" transform="translate(-0.01 0)" fill="none" stroke="#1a8cff" stroke-miterlimit="10"/></svg>
